<?xml version="1.0" encoding="UTF-8" standalone="no"?>
<svg
   xmlns:dc="http://purl.org/dc/elements/1.1/"
   xmlns:cc="http://creativecommons.org/ns#"
   xmlns:rdf="http://www.w3.org/1999/02/22-rdf-syntax-ns#"
   xmlns:svg="http://www.w3.org/2000/svg"
   xmlns="http://www.w3.org/2000/svg"
   xmlns:sodipodi="http://sodipodi.sourceforge.net/DTD/sodipodi-0.dtd"
   xmlns:inkscape="http://www.inkscape.org/namespaces/inkscape"
   width="612pt"
   height="792pt"
   viewBox="0 0 612 792"
   version="1.1"
   id="svg3355"
   inkscape:version="0.91 r13725"
   sodipodi:docname="twister-cover.svg">
  <metadata
     id="metadata4988">
    <rdf:RDF>
      <cc:Work
         rdf:about="">
        <dc:format>image/svg+xml</dc:format>
        <dc:type
           rdf:resource="http://purl.org/dc/dcmitype/StillImage" />
        <dc:title></dc:title>
      </cc:Work>
    </rdf:RDF>
  </metadata>
  <sodipodi:namedview
     pagecolor="#ffffff"
     bordercolor="#666666"
     borderopacity="1"
     objecttolerance="10"
     gridtolerance="10"
     guidetolerance="10"
     inkscape:pageopacity="0"
     inkscape:pageshadow="2"
     inkscape:window-width="1301"
     inkscape:window-height="959"
     id="namedview4986"
     showgrid="false"
     inkscape:zoom="0.87474747"
     inkscape:cx="216.73788"
     inkscape:cy="586.45497"
     inkscape:window-x="0"
     inkscape:window-y="0"
     inkscape:window-maximized="0"
     inkscape:current-layer="svg3355" />
  <defs
     id="defs3357">
    <clipPath
       id="clip1">
      <path
         d="M 485 403 L 498.515625 403 L 498.515625 406 L 485 406 Z M 485 403 "
         id="path3360" />
    </clipPath>
    <clipPath
       id="clip2">
      <path
         d="M 485 408 L 498.515625 408 L 498.515625 411 L 485 411 Z M 485 408 "
         id="path3363" />
    </clipPath>
    <clipPath
       id="clip3">
      <path
         d="M 485 588 L 498.515625 588 L 498.515625 592 L 485 592 Z M 485 588 "
         id="path3366" />
    </clipPath>
    <clipPath
       id="clip4">
      <path
         d="M 113.484375 396 L 426 396 L 426 643 L 113.484375 643 Z M 113.484375 396 "
         id="path3369" />
    </clipPath>
  </defs>
  <path
     inkscape:connector-curvature="0"
     id="path4902"
     d="m 475.34967,82.071321 0,203.230529 -293.72664,0 0,-203.230529 z m -14.61328,80.550799 0,42.12892 -88.27737,0 0,-42.12892 z M 215.65038,152.05181 c -9.97266,0 -18.0586,-8.08204 -18.0586,-18.0547 0,-9.97265 8.08594,-18.05469 18.0586,-18.05469 9.97266,0 18.05469,8.08204 18.05469,18.05469 0,9.97266 -8.08203,18.0547 -18.05469,18.0547 z m 0,56.26955 c -9.97266,0 -18.0586,-8.08204 -18.0586,-18.0547 0,-9.97266 8.08594,-18.0586 18.0586,-18.0586 9.97266,0 18.05469,8.08594 18.05469,18.0586 0,9.97266 -8.08203,18.0547 -18.05469,18.0547 z m 150.63676,-11.50782 c -1.66406,0 -3.01172,-1.34375 -3.01172,-3.01172 0,-1.66016 1.34766,-3.00782 3.01172,-3.00782 1.66016,0 3.00782,1.34766 3.00782,3.00782 0,1.66797 -1.34766,3.01172 -3.00782,3.01172 z m 0,-20.16407 c -1.66406,0 -3.01172,-1.34766 -3.01172,-3.01172 0,-1.66016 1.34766,-3.00781 3.01172,-3.00781 1.66016,0 3.00782,1.34765 3.00782,3.00781 0,1.66406 -1.34766,3.01172 -3.00782,3.01172 z m 100.31253,0 c -1.66016,0 -3.00781,-1.34766 -3.00781,-3.01172 0,-1.66016 1.34765,-3.00781 3.00781,-3.00781 1.66406,0 3.01172,1.34765 3.01172,3.00781 0,1.66406 -1.34766,3.01172 -3.01172,3.01172 z m 0,20.16407 c -1.66016,0 -3.00781,-1.34375 -3.00781,-3.01172 0,-1.66016 1.34765,-3.00782 3.00781,-3.00782 1.66406,0 3.01172,1.34766 3.01172,3.00782 0,1.66797 -1.34766,3.01172 -3.01172,3.01172 z m -55.01564,63.15236 c -2.76953,0 -5.01563,-2.24609 -5.01563,-5.01953 0,-2.76953 2.2461,-5.01172 5.01563,-5.01172 2.76953,0 5.01562,2.24219 5.01562,5.01172 0,2.77344 -2.24609,5.01953 -5.01562,5.01953 z m 0.59375,-142.71879 c -2.76953,0 -5.01563,-2.24219 -5.01563,-5.01563 0,-2.76953 2.2461,-5.01563 5.01563,-5.01563 2.76953,0 5.01563,2.2461 5.01563,5.01563 0,2.77344 -2.2461,5.01563 -5.01563,5.01563 z M 239.06445,259.9659 c -2.76953,0 -5.01563,-2.24609 -5.01563,-5.01953 0,-2.76953 2.2461,-5.01172 5.01563,-5.01172 2.76953,0 5.01563,2.24219 5.01563,5.01172 0,2.77344 -2.2461,5.01953 -5.01563,5.01953 z m 0,-142.01957 c -2.76953,0 -5.01563,-2.24219 -5.01563,-5.01562 0,-2.76954 2.2461,-5.01563 5.01563,-5.01563 2.76953,0 5.01563,2.24609 5.01563,5.01563 0,2.77343 -2.2461,5.01562 -5.01563,5.01562 z m -0.29297,122.67581 c -4.71094,0 -8.52734,-3.8125 -8.52734,-8.52734 0,-4.71094 3.8164,-8.52735 8.52734,-8.52735 4.71094,0 8.52735,3.81641 8.52735,8.52735 0,4.71484 -3.81641,8.52734 -8.52735,8.52734 z m 152.72661,23.38282 c -7.48048,0 -13.54297,-6.05859 -13.54297,-13.54297 0,-7.48047 6.06249,-13.54297 13.54297,-13.54297 7.48046,0 13.54297,6.0625 13.54297,13.54297 0,7.48438 -6.06251,13.54297 -13.54297,13.54297 z m 25.11328,-41.86329 c -2.76953,0 -5.01562,-2.24219 -5.01562,-5.01563 0,-2.76953 2.24609,-5.01562 5.01562,-5.01562 2.76953,0 5.01563,2.24609 5.01563,5.01562 0,2.77344 -2.2461,5.01563 -5.01563,5.01563 z m 0.0547,-65.03517 c -2.76953,0 -5.01562,-2.24219 -5.01562,-5.01563 0,-2.76953 2.24609,-5.01563 5.01562,-5.01563 2.76954,0 5.01563,2.2461 5.01563,5.01563 0,2.77344 -2.24609,5.01563 -5.01563,5.01563 z m -45.36328,-36.0547 c -2.77344,0 -5.01563,-2.2461 -5.01563,-5.01953 0,-2.76953 2.24219,-5.01172 5.01563,-5.01172 2.76953,0 5.01172,2.24219 5.01172,5.01172 0,2.77343 -2.24219,5.01953 -5.01172,5.01953 z m -86.17971,135.86331 0,-146.45707 54.17189,0 0,146.45707 -16.88673,0.10938 -3.27344,4.83594 -14.14063,0 -3.5625,-4.83594 z m 86.17971,-37.51563 0,39.63282 -16.85938,0 0,-39.63282 z m 0,0"
     style="fill:none;stroke:#0000ff;stroke-width:0.4;stroke-linecap:butt;stroke-linejoin:miter;stroke-miterlimit:10;stroke-opacity:1;stroke-dasharray:none" />
  <path
     inkscape:connector-curvature="0"
     id="path4904"
     d="m 275.89645,113.07911 0,5.05468 -1.48437,0 0,-1.71093 -8.91797,0 0,-1.63282 8.91797,0 0,-1.71093 1.48437,0"
     style="fill:#7f7f7f;fill-opacity:1;fill-rule:nonzero;stroke:none" />
  <path
     inkscape:connector-curvature="0"
     id="path4906"
     d="m 271.51364,120.5127 0,2.24219 -1.48438,0 0,-2.24219 -3.04687,0 0,2.82031 -1.48828,0 0,-4.45703 10.40234,0 0,4.45703 -1.48437,0 0,-2.82031 -2.89844,0"
     style="fill:#7f7f7f;fill-opacity:1;fill-rule:nonzero;stroke:none" />
  <path
     inkscape:connector-curvature="0"
     id="path4908"
     d="m 275.89645,123.89942 0,5.05469 -1.48437,0 0,-1.71094 -8.91797,0 0,-1.63281 8.91797,0 0,-1.71094 1.48437,0"
     style="fill:#7f7f7f;fill-opacity:1;fill-rule:nonzero;stroke:none" />
  <path
     inkscape:connector-curvature="0"
     id="path4910"
     d="m 265.49411,133.11426 c 0.26953,-0.0898 0.43359,-0.14844 1.27734,-0.14844 l 1.63672,0 c 0.96484,0 1.32031,-0.32812 1.32031,-1.07031 l 0,-0.5625 -4.23437,0 0,-1.63672 10.40234,0 0,2.46875 c 0,1.69141 -0.78906,2.42188 -2.39062,2.42188 l -0.82032,0 c -1.07031,0 -1.76562,-0.34375 -2.10937,-1.07031 -0.33984,0.8164 -1.12891,1.08203 -2.21094,1.08203 l -1.60547,0 c -0.50781,0 -0.8789,0.0156 -1.26562,0.17968 z m 8.91797,-1.78125 -3.19532,0 0,0.63672 c 0,0.60938 0.26563,0.98047 1.09766,0.98047 l 1.02734,0 c 0.74219,0 1.07032,-0.25 1.07032,-0.83203 l 0,-0.78516"
     style="fill:#7f7f7f;fill-opacity:1;fill-rule:nonzero;stroke:none" />
  <path
     inkscape:connector-curvature="0"
     id="path4912"
     d="m 273.40036,135.53614 c 1.66406,0 2.61719,0.8789 2.61719,2.48437 0,1.60547 -0.95313,2.48047 -2.61719,2.48047 l -5.41016,0 c -1.66406,0 -2.61328,-0.875 -2.61328,-2.48047 0,-1.60547 0.94922,-2.48437 2.61328,-2.48437 z m -5.51172,1.63672 c -0.74609,0 -1.02734,0.32812 -1.02734,0.84765 0,0.51953 0.28125,0.84766 1.02734,0.84766 l 5.61719,0 c 0.74218,0 1.02343,-0.32813 1.02343,-0.84766 0,-0.51953 -0.28125,-0.84765 -1.02343,-0.84765 l -5.61719,0"
     style="fill:#7f7f7f;fill-opacity:1;fill-rule:nonzero;stroke:none" />
  <path
     inkscape:connector-curvature="0"
     id="path4914"
     d="m 275.89645,141.55567 0,2.58594 c 0,1.63671 -0.90625,2.4375 -2.57031,2.4375 l -5.26172,0 c -1.66406,0 -2.57031,-0.80079 -2.57031,-2.4375 l 0,-2.58594 z m -1.48437,1.63672 -7.42969,0 0,0.92187 c 0,0.51953 0.26562,0.83203 1.00781,0.83203 l 5.41016,0 c 0.74219,0 1.01172,-0.3125 1.01172,-0.83203 l 0,-0.92187"
     style="fill:#7f7f7f;fill-opacity:1;fill-rule:nonzero;stroke:none" />
  <path
     inkscape:connector-curvature="0"
     id="path4916"
     d="m 271.51364,149.25489 0,2.24609 -1.48438,0 0,-2.24609 -3.04687,0 0,2.82422 -1.48828,0 0,-4.45704 10.40234,0 0,4.45704 -1.48437,0 0,-2.82422 -2.89844,0"
     style="fill:#7f7f7f;fill-opacity:1;fill-rule:nonzero;stroke:none" />
  <path
     inkscape:connector-curvature="0"
     id="path4918"
     d="m 275.89645,154.9502 0,5.05078 -1.48437,0 0,-1.70703 -8.91797,0 0,-1.63672 8.91797,0 0,-1.70703 1.48437,0"
     style="fill:#7f7f7f;fill-opacity:1;fill-rule:nonzero;stroke:none" />
  <path
     inkscape:connector-curvature="0"
     id="path4920"
     d="m 271.03708,164.37207 -5.54297,-0.59375 0,-2.24609 10.40234,-1.15625 0,1.58594 -8.20312,0.8789 8.20312,0.78907 0,1.57422 -8.26172,0.8164 8.26172,0.84766 0,1.42578 -10.40234,-1.16016 0,-2.16797 5.54297,-0.59375"
     style="fill:#7f7f7f;fill-opacity:1;fill-rule:nonzero;stroke:none" />
  <path
     inkscape:connector-curvature="0"
     id="path4922"
     d="m 265.49411,170.74707 10.40234,0 0,-1.63281 -10.40234,0 z m 0,0"
     style="fill:#7f7f7f;fill-opacity:1;fill-rule:nonzero;stroke:none" />
  <path
     inkscape:connector-curvature="0"
     id="path4924"
     d="m 276.01755,174.1377 c 0,1.58984 -0.95313,2.40625 -2.61719,2.40625 l -0.40235,0 0,-1.54688 0.50782,0 c 0.74218,0 1.02343,-0.29687 1.02343,-0.8164 0,-0.51953 -0.28125,-0.81641 -1.02343,-0.81641 -2.14063,0 -2.54297,3.19531 -5.51563,3.19531 -1.66406,0 -2.61328,-0.83203 -2.61328,-2.4375 0,-1.60546 0.94922,-2.4375 2.61328,-2.4375 l 0.71485,0 0,1.54688 -0.81641,0 c -0.74609,0 -1.01172,0.32422 -1.01172,0.84766 0,0.51953 0.26563,0.84375 1.01172,0.84375 2.14062,0 2.53906,-3.19532 5.51172,-3.19532 1.66406,0 2.61719,0.82032 2.61719,2.41016"
     style="fill:#7f7f7f;fill-opacity:1;fill-rule:nonzero;stroke:none" />
  <path
     inkscape:connector-curvature="0"
     id="path4926"
     d="m 275.89645,177.05176 0,5.05078 -1.48437,0 0,-1.71093 -8.91797,0 0,-1.63282 8.91797,0 0,-1.70703 1.48437,0"
     style="fill:#7f7f7f;fill-opacity:1;fill-rule:nonzero;stroke:none" />
  <path
     inkscape:connector-curvature="0"
     id="path4928"
     d="m 271.51364,184.48145 0,2.24219 -1.48438,0 0,-2.24219 -3.04687,0 0,2.82422 -1.48828,0 0,-4.45703 10.40234,0 0,4.45703 -1.48437,0 0,-2.82422 -2.89844,0"
     style="fill:#7f7f7f;fill-opacity:1;fill-rule:nonzero;stroke:none" />
  <path
     inkscape:connector-curvature="0"
     id="path4930"
     d="m 265.49411,191.73536 c 0.26953,-0.0898 0.43359,-0.15235 1.27734,-0.15235 l 1.63672,0 c 0.96484,0 1.32031,-0.32422 1.32031,-1.0664 l 0,-0.56641 -4.23437,0 0,-1.63281 10.40234,0 0,2.46484 c 0,1.69531 -0.78906,2.42188 -2.39062,2.42188 l -0.82032,0 c -1.07031,0 -1.76562,-0.33985 -2.10937,-1.07032 -0.33984,0.82032 -1.12891,1.08594 -2.21094,1.08594 l -1.60547,0 c -0.50781,0 -0.8789,0.0156 -1.26562,0.17969 z m 8.91797,-1.78516 -3.19532,0 0,0.64062 c 0,0.60938 0.26563,0.98047 1.09766,0.98047 l 1.02734,0 c 0.74219,0 1.07032,-0.2539 1.07032,-0.83203 l 0,-0.78906"
     style="fill:#7f7f7f;fill-opacity:1;fill-rule:nonzero;stroke:none" />
  <path
     inkscape:connector-curvature="0"
     id="path4932"
     d="m 271.27536,198.23145 0,2.10937 -1.48438,0 0,-2.10937 -4.29687,0 0,-1.63672 10.40234,0 0,4.32422 -1.48437,0 0,-2.6875 -3.13672,0"
     style="fill:#7f7f7f;fill-opacity:1;fill-rule:nonzero;stroke:none" />
  <path
     inkscape:connector-curvature="0"
     id="path4934"
     d="m 273.40036,201.5752 c 1.66406,0 2.61719,0.875 2.61719,2.48047 0,1.60547 -0.95313,2.48047 -2.61719,2.48047 l -5.41016,0 c -1.66406,0 -2.61328,-0.875 -2.61328,-2.48047 0,-1.60547 0.94922,-2.48047 2.61328,-2.48047 z m -5.51172,1.63281 c -0.74609,0 -1.02734,0.32813 -1.02734,0.84766 0,0.51953 0.28125,0.84765 1.02734,0.84765 l 5.61719,0 c 0.74218,0 1.02343,-0.32812 1.02343,-0.84765 0,-0.51953 -0.28125,-0.84766 -1.02343,-0.84766 l -5.61719,0"
     style="fill:#7f7f7f;fill-opacity:1;fill-rule:nonzero;stroke:none" />
  <path
     inkscape:connector-curvature="0"
     id="path4936"
     d="m 265.49411,211.0127 c 0.26953,-0.0898 0.43359,-0.14844 1.27734,-0.14844 l 1.63672,0 c 0.96484,0 1.32031,-0.32812 1.32031,-1.07031 l 0,-0.56641 -4.23437,0 0,-1.63281 10.40234,0 0,2.46484 c 0,1.69532 -0.78906,2.42188 -2.39062,2.42188 l -0.82032,0 c -1.07031,0 -1.76562,-0.33984 -2.10937,-1.07031 -0.33984,0.8164 -1.12891,1.08593 -2.21094,1.08593 l -1.60547,0 c -0.50781,0 -0.8789,0.0156 -1.26562,0.17969 z m 8.91797,-1.78516 -3.19532,0 0,0.64063 c 0,0.60937 0.26563,0.98047 1.09766,0.98047 l 1.02734,0 c 0.74219,0 1.07032,-0.25391 1.07032,-0.83594 l 0,-0.78516"
     style="fill:#7f7f7f;fill-opacity:1;fill-rule:nonzero;stroke:none" />
  <path
     inkscape:connector-curvature="0"
     id="path4938"
     d="m 265.49411,221.16114 0,-1.64844 1.88672,-0.28125 0,-2.00781 -1.88672,-0.28125 0,-1.50391 10.40234,1.66797 0,2.39062 z m 3.30078,-3.72657 0,1.57422 5.26172,-0.78906 -5.26172,-0.78516"
     style="fill:#7f7f7f;fill-opacity:1;fill-rule:nonzero;stroke:none" />
  <path
     inkscape:connector-curvature="0"
     id="path4940"
     d="m 265.49411,225.34082 c 0.26953,-0.0898 0.43359,-0.14843 1.27734,-0.14843 l 1.63672,0 c 0.96484,0 1.32031,-0.32813 1.32031,-1.07032 l 0,-0.5664 -4.23437,0 0,-1.63281 10.40234,0 0,2.46484 c 0,1.69531 -0.78906,2.42187 -2.39062,2.42187 l -0.82032,0 c -1.07031,0 -1.76562,-0.33984 -2.10937,-1.07031 -0.33984,0.82031 -1.12891,1.08594 -2.21094,1.08594 l -1.60547,0 c -0.50781,0 -0.8789,0.0156 -1.26562,0.17969 z m 8.91797,-1.78515 -3.19532,0 0,0.64062 c 0,0.60938 0.26563,0.98047 1.09766,0.98047 l 1.02734,0 c 0.74219,0 1.07032,-0.2539 1.07032,-0.83203 l 0,-0.78906"
     style="fill:#7f7f7f;fill-opacity:1;fill-rule:nonzero;stroke:none" />
  <path
     inkscape:connector-curvature="0"
     id="path4942"
     d="m 275.89645,227.89551 0,2.58594 c 0,1.63281 -0.90625,2.4375 -2.57031,2.4375 l -5.26172,0 c -1.66406,0 -2.57031,-0.80469 -2.57031,-2.4375 l 0,-2.58594 z m -1.48437,1.63672 -7.42969,0 0,0.91797 c 0,0.52344 0.26562,0.83203 1.00781,0.83203 l 5.41016,0 c 0.74219,0 1.01172,-0.30859 1.01172,-0.83203 l 0,-0.91797"
     style="fill:#7f7f7f;fill-opacity:1;fill-rule:nonzero;stroke:none" />
  <path
     inkscape:connector-curvature="0"
     id="path4944"
     d="m 275.89645,235.52051 -8.02344,0 c -0.74218,0 -1.01171,0.32813 -1.01171,0.84766 0,0.51953 0.26953,0.84765 1.01171,0.84765 l 8.02344,0 0,1.54297 -7.92187,0 c -1.66407,0 -2.61328,-0.83203 -2.61328,-2.4375 0,-1.60156 0.94921,-2.4375 2.61328,-2.4375 l 7.92187,0 0,1.63672"
     style="fill:#7f7f7f;fill-opacity:1;fill-rule:nonzero;stroke:none" />
  <path
     inkscape:connector-curvature="0"
     id="path4946"
     d="m 265.49411,241.5127 10.40234,0 0,-1.63672 -10.40234,0 z m 0,0"
     style="fill:#7f7f7f;fill-opacity:1;fill-rule:nonzero;stroke:none" />
  <path
     inkscape:connector-curvature="0"
     id="path4948"
     d="m 273.02926,244.15723 -7.53515,0 0,-1.47266 10.40234,0 0,2.05079 -6.22656,1.67968 6.22656,0 0,1.45703 -10.40234,0 0,-1.67968 7.53515,-2.03516"
     style="fill:#7f7f7f;fill-opacity:1;fill-rule:nonzero;stroke:none" />
  <path
     inkscape:connector-curvature="0"
     id="path4950"
     d="m 273.40036,248.91114 c 1.66406,0 2.61719,0.8789 2.61719,2.48437 0,1.60547 -0.95313,2.48047 -2.61719,2.48047 l -5.41016,0 c -1.66406,0 -2.61328,-0.875 -2.61328,-2.48047 0,-1.60547 0.94922,-2.48437 2.61328,-2.48437 z m -5.51172,1.63672 c -0.74609,0 -1.02734,0.32421 -1.02734,0.84765 0,0.51953 0.28125,0.84375 1.02734,0.84375 l 5.61719,0 c 0.74218,0 1.02343,-0.32422 1.02343,-0.84375 0,-0.52344 -0.28125,-0.84765 -1.02343,-0.84765 l -5.61719,0"
     style="fill:#7f7f7f;fill-opacity:1;fill-rule:nonzero;stroke:none" />
  <path
     inkscape:connector-curvature="0"
     id="path4952"
     d="m 347.27145,219.36817 -0.72656,0 c -0.87109,0 -1.37109,-0.4375 -1.37109,-1.27735 0,-0.84375 0.5,-1.27734 1.37109,-1.27734 l 2.83594,0 c 0.87109,0 1.36718,0.43359 1.36718,1.27734 0,0.83985 -0.49609,1.27735 -1.36718,1.27735 l -0.53125,0 0,-0.8125 0.58593,0 c 0.38672,0 0.53516,-0.17188 0.53516,-0.44141 0,-0.27344 -0.14844,-0.44531 -0.53516,-0.44531 l -2.94531,0 c -0.39062,0 -0.52734,0.17187 -0.52734,0.44531 0,0.26953 0.13672,0.44141 0.52734,0.44141 l 0.78125,0 0,0.8125"
     style="fill:#7f7f7f;fill-opacity:1;fill-rule:nonzero;stroke:none" />
  <path
     inkscape:connector-curvature="0"
     id="path4954"
     d="m 349.38083,219.81739 c 0.87109,0 1.36718,0.46093 1.36718,1.30078 0,0.83984 -0.49609,1.30078 -1.36718,1.30078 l -2.83594,0 c -0.87109,0 -1.37109,-0.46094 -1.37109,-1.30078 0,-0.83985 0.5,-1.30078 1.37109,-1.30078 z m -2.89063,0.85547 c -0.39062,0 -0.53515,0.17187 -0.53515,0.44531 0,0.27344 0.14453,0.44531 0.53515,0.44531 l 2.94531,0 c 0.38672,0 0.53516,-0.17187 0.53516,-0.44531 0,-0.27344 -0.14844,-0.44531 -0.53516,-0.44531 l -2.94531,0"
     style="fill:#7f7f7f;fill-opacity:1;fill-rule:nonzero;stroke:none" />
  <path
     inkscape:connector-curvature="0"
     id="path4956"
     d="m 349.18551,223.73145 -3.94921,0 0,-0.76953 5.45312,0 0,1.07422 -3.26562,0.8789 3.26562,0 0,0.76563 -5.45312,0 0,-0.87891 3.94921,-1.07031"
     style="fill:#7f7f7f;fill-opacity:1;fill-rule:nonzero;stroke:none" />
  <path
     inkscape:connector-curvature="0"
     id="path4958"
     d="m 350.68942,226.05957 0,2.64844 -0.78125,0 0,-0.89453 -4.67187,0 0,-0.85547 4.67187,0 0,-0.89844 0.78125,0"
     style="fill:#7f7f7f;fill-opacity:1;fill-rule:nonzero;stroke:none" />
  <path
     inkscape:connector-curvature="0"
     id="path4960"
     d="m 345.2363,230.8877 c 0.14062,-0.0469 0.22656,-0.0781 0.67187,-0.0781 l 0.85547,0 c 0.50781,0 0.69141,-0.16796 0.69141,-0.55859 l 0,-0.29687 -2.21875,0 0,-0.85547 5.45312,0 0,1.29297 c 0,0.88671 -0.41406,1.26953 -1.25391,1.26953 l -0.42968,0 c -0.5586,0 -0.92578,-0.17969 -1.10547,-0.5625 -0.17969,0.42968 -0.58985,0.5664 -1.16016,0.5664 l -0.83984,0 c -0.26563,0 -0.46094,0.0117 -0.66406,0.0977 z m 4.67187,-0.93359 -1.67187,0 0,0.33593 c 0,0.31641 0.14062,0.51172 0.57421,0.51172 l 0.53907,0 c 0.38672,0 0.55859,-0.13281 0.55859,-0.43359 l 0,-0.41406"
     style="fill:#7f7f7f;fill-opacity:1;fill-rule:nonzero;stroke:none" />
  <path
     inkscape:connector-curvature="0"
     id="path4962"
     d="m 345.2363,235.00098 0,-0.86328 0.98828,-0.14844 0,-1.05469 -0.98828,-0.14843 0,-0.78516 5.45312,0.87109 0,1.25391 z m 1.73046,-1.95703 0,0.82812 2.75391,-0.41406 -2.75391,-0.41406"
     style="fill:#7f7f7f;fill-opacity:1;fill-rule:nonzero;stroke:none" />
  <path
     inkscape:connector-curvature="0"
     id="path4964"
     d="m 350.74801,236.54786 c 0,0.83203 -0.49609,1.26171 -1.36718,1.26171 l -0.21094,0 0,-0.80859 0.26562,0 c 0.38672,0 0.53516,-0.15625 0.53516,-0.42969 0,-0.27343 -0.14844,-0.42968 -0.53516,-0.42968 -1.12109,0 -1.33203,1.67578 -2.89062,1.67578 -0.87109,0 -1.37109,-0.4375 -1.37109,-1.27735 0,-0.83984 0.5,-1.27734 1.37109,-1.27734 l 0.375,0 0,0.8125 -0.42969,0 c -0.39062,0 -0.52734,0.17187 -0.52734,0.44141 0,0.27343 0.13672,0.44531 0.52734,0.44531 1.1211,0 1.33203,-1.67578 2.89063,-1.67578 0.87109,0 1.36718,0.42968 1.36718,1.26172"
     style="fill:#7f7f7f;fill-opacity:1;fill-rule:nonzero;stroke:none" />
  <path
     inkscape:connector-curvature="0"
     id="path4966"
     d="m 350.68942,238.0752 0,2.64453 -0.78125,0 0,-0.89453 -4.67187,0 0,-0.85547 4.67187,0 0,-0.89453 0.78125,0"
     style="fill:#7f7f7f;fill-opacity:1;fill-rule:nonzero;stroke:none" />
  <path
     inkscape:connector-curvature="0"
     id="path4968"
     d="m 345.2363,248.3877 c 0.14062,-0.0469 0.22656,-0.0781 0.67187,-0.0781 l 0.85547,0 c 0.50781,0 0.69141,-0.17187 0.69141,-0.55859 l 0,-0.29687 -2.21875,0 0,-0.85938 5.45312,0 0,1.29297 c 0,0.89062 -0.41406,1.26953 -1.25391,1.26953 l -0.42968,0 c -0.5586,0 -0.92578,-0.17578 -1.10547,-0.55859 -0.17969,0.42578 -0.58985,0.5664 -1.16016,0.5664 l -0.83984,0 c -0.26563,0 -0.46094,0.0117 -0.66406,0.0937 z m 4.67187,-0.93359 -1.67187,0 0,0.33593 c 0,0.31641 0.14062,0.51172 0.57421,0.51172 l 0.53907,0 c 0.39062,0 0.55859,-0.13281 0.55859,-0.4375 l 0,-0.41015"
     style="fill:#7f7f7f;fill-opacity:1;fill-rule:nonzero;stroke:none" />
  <path
     inkscape:connector-curvature="0"
     id="path4970"
     d="m 348.39255,250.58301 0,1.17578 -0.78125,0 0,-1.17578 -1.59375,0 0,1.48047 -0.78125,0 0,-2.33594 5.45312,0 0,2.33594 -0.78125,0 0,-1.48047 -1.51562,0"
     style="fill:#7f7f7f;fill-opacity:1;fill-rule:nonzero;stroke:none" />
  <path
     inkscape:connector-curvature="0"
     id="path4972"
     d="m 350.75192,253.74317 c 0,0.83594 -0.5,1.26172 -1.37109,1.26172 l -0.21094,0 0,-0.8086 0.26562,0 c 0.38672,0 0.53516,-0.15625 0.53516,-0.42968 0,-0.27344 -0.14844,-0.42579 -0.53516,-0.42579 -1.12109,0 -1.33203,1.67188 -2.89062,1.67188 -0.87109,0 -1.37109,-0.43359 -1.37109,-1.27734 0,-0.83985 0.5,-1.27735 1.37109,-1.27735 l 0.375,0 0,0.8125 -0.42969,0 c -0.38672,0 -0.52734,0.17188 -0.52734,0.44141 0,0.27344 0.14062,0.44531 0.52734,0.44531 1.1211,0 1.33203,-1.67578 2.89063,-1.67578 0.87109,0 1.37109,0.42969 1.37109,1.26172"
     style="fill:#7f7f7f;fill-opacity:1;fill-rule:nonzero;stroke:none" />
  <path
     inkscape:connector-curvature="0"
     id="path4974"
     d="m 348.39255,256.36036 0,1.17578 -0.78125,0 0,-1.17578 -1.59375,0 0,1.48046 -0.78125,0 0,-2.33593 5.45312,0 0,2.33593 -0.78125,0 0,-1.48046 -1.51562,0"
     style="fill:#7f7f7f;fill-opacity:1;fill-rule:nonzero;stroke:none" />
  <path
     inkscape:connector-curvature="0"
     id="path4976"
     d="m 350.68942,258.13379 0,2.64844 -0.78125,0 0,-0.89453 -4.67187,0 0,-0.85938 4.67187,0 0,-0.89453 0.78125,0"
     style="fill:#7f7f7f;fill-opacity:1;fill-rule:nonzero;stroke:none" />
  <path
     inkscape:connector-curvature="0"
     id="path4978"
     d="m 225.2402,223.32129 -3.83203,6.63672 -3.83203,-6.63672 7.66406,0"
     style="fill:#7f7f7f;fill-opacity:1;fill-rule:nonzero;stroke:none" />
  <path
     inkscape:connector-curvature="0"
     id="path4980"
     d="m 217.72067,238.39161 7.54688,0 0,-1.76563 -7.54688,0 z m 0,0"
     style="fill:#7f7f7f;fill-opacity:1;fill-rule:nonzero;stroke:none" />
  <path
     inkscape:connector-curvature="0"
     id="path4982"
     d="m 217.72067,241.81348 7.54688,0 0,-1.76953 -7.54688,0 z m 0,0"
     style="fill:#7f7f7f;fill-opacity:1;fill-rule:nonzero;stroke:none" />
  <path
     inkscape:connector-curvature="0"
     id="path4984"
     d="m 214.49411,231.14161 0.3164,-0.94922 12.85938,4.30468 -0.32031,0.95313 -12.85547,-4.30859"
     style="fill:#7f7f7f;fill-opacity:1;fill-rule:nonzero;stroke:none" />
</svg>
