<?xml version="1.0" encoding="UTF-8" standalone="no"?>
<svg
   xmlns:dc="http://purl.org/dc/elements/1.1/"
   xmlns:cc="http://creativecommons.org/ns#"
   xmlns:rdf="http://www.w3.org/1999/02/22-rdf-syntax-ns#"
   xmlns:svg="http://www.w3.org/2000/svg"
   xmlns="http://www.w3.org/2000/svg"
   xmlns:sodipodi="http://sodipodi.sourceforge.net/DTD/sodipodi-0.dtd"
   xmlns:inkscape="http://www.inkscape.org/namespaces/inkscape"
   width="612pt"
   height="792pt"
   viewBox="0 0 612 792"
   version="1.1"
   id="svg4899"
   inkscape:version="0.91 r13725"
   sodipodi:docname="twister-base.svg">
  <metadata
     id="metadata6450">
    <rdf:RDF>
      <cc:Work
         rdf:about="">
        <dc:format>image/svg+xml</dc:format>
        <dc:type
           rdf:resource="http://purl.org/dc/dcmitype/StillImage" />
        <dc:title></dc:title>
      </cc:Work>
    </rdf:RDF>
  </metadata>
  <sodipodi:namedview
     pagecolor="#ffffff"
     bordercolor="#666666"
     borderopacity="1"
     objecttolerance="10"
     gridtolerance="10"
     guidetolerance="10"
     inkscape:pageopacity="0"
     inkscape:pageshadow="2"
     inkscape:window-width="854"
     inkscape:window-height="735"
     id="namedview6448"
     showgrid="false"
     inkscape:zoom="0.82849744"
     inkscape:cx="382.5"
     inkscape:cy="495"
     inkscape:window-x="370"
     inkscape:window-y="132"
     inkscape:window-maximized="0"
     inkscape:current-layer="svg4899" />
  <defs
     id="defs4901">
    <clipPath
       id="clip1">
      <path
         d="M 485 403 L 498.515625 403 L 498.515625 406 L 485 406 Z M 485 403 "
         id="path4904" />
    </clipPath>
    <clipPath
       id="clip2">
      <path
         d="M 485 408 L 498.515625 408 L 498.515625 411 L 485 411 Z M 485 408 "
         id="path4907" />
    </clipPath>
    <clipPath
       id="clip3">
      <path
         d="M 485 588 L 498.515625 588 L 498.515625 592 L 485 592 Z M 485 588 "
         id="path4910" />
    </clipPath>
    <clipPath
       id="clip4">
      <path
         d="M 113.484375 396 L 426 396 L 426 643 L 113.484375 643 Z M 113.484375 396 "
         id="path4913" />
    </clipPath>
  </defs>
  <path
     inkscape:connector-curvature="0"
     id="path6446"
     d="m 214.24752,155.64031 92.58595,0 0,14.57032 -12.03515,0.043 0,88.27737 42.12891,0 0,-88.27737 -12.03515,-0.043 0,-14.57032 92.58596,0 0,293.72665 -203.23052,0 z m 177.89457,63.76955 c 0,2.76953 -2.24609,5.01563 -5.01953,5.01563 -2.76953,0 -5.01171,-2.2461 -5.01171,-5.01563 0,-2.77343 2.24218,-5.01562 5.01171,-5.01562 2.77344,0 5.01953,2.24219 5.01953,5.01562 z M 249.4233,218.8122 c 0,2.76954 -2.24219,5.01563 -5.01562,5.01563 -2.77344,0 -5.01563,-2.24609 -5.01563,-5.01563 0,-2.76953 2.24219,-5.01562 5.01563,-5.01562 2.77343,0 5.01562,2.24609 5.01562,5.01562 z m 142.71879,173.11333 c 0,2.77345 -2.24609,5.01564 -5.01953,5.01564 -2.76953,0 -5.01171,-2.24219 -5.01171,-5.01564 0,-2.76953 2.24218,-5.01562 5.01171,-5.01562 2.77344,0 5.01953,2.24609 5.01953,5.01562 z m -142.01957,0 c 0,2.77345 -2.24219,5.01564 -5.01562,5.01564 -2.76954,0 -5.01563,-2.24219 -5.01563,-5.01564 0,-2.76953 2.24609,-5.01562 5.01563,-5.01562 2.77343,0 5.01562,2.24609 5.01562,5.01562 z m 0,0"
     style="fill:none;stroke:#0000ff;stroke-width:0.4;stroke-linecap:butt;stroke-linejoin:miter;stroke-miterlimit:10;stroke-opacity:1;stroke-dasharray:none" />
</svg>
